<?xml version="1.0" encoding="utf-8"?>
<!-- Uploaded to: SVG Repo, www.svgrepo.com, Generator: SVG Repo Mixer Tools -->
<svg width="800px" height="800px" viewBox="0 0 1024 1024" class="icon"  version="1.1" xmlns="http://www.w3.org/2000/svg"><path d="M512 512m-480 0a480 480 0 1 0 960 0 480 480 0 1 0-960 0Z" fill="#FFF0C2" /><path d="M371.2 704c0-12.8 12.8-25.6 25.6-25.6h384c12.8 0 25.6 12.8 25.6 25.6v44.8c0 12.8-12.8 25.6-25.6 25.6h-384c-12.8 0-25.6-12.8-25.6-25.6V704zM371.2 563.2c0-12.8 12.8-25.6 25.6-25.6h384c12.8 0 25.6 12.8 25.6 25.6v44.8c0 12.8-12.8 25.6-25.6 25.6h-384c-12.8 0-25.6-12.8-25.6-25.6v-44.8zM416 416c0-12.8 12.8-25.6 25.6-25.6h384c12.8 0 25.6 12.8 25.6 25.6v44.8c0 12.8-12.8 25.6-25.6 25.6h-384c-12.8 0-25.6-12.8-25.6-25.6v-44.8zM320 275.2c0-19.2 12.8-25.6 25.6-25.6h384c12.8 0 25.6 12.8 25.6 25.6V320c0 12.8-12.8 25.6-25.6 25.6h-384c-12.8 0-25.6-12.8-25.6-25.6v-44.8z" fill="#FFE085" /><path d="M416 563.2m-217.6 0a217.6 217.6 0 1 0 435.2 0 217.6 217.6 0 1 0-435.2 0Z" fill="#F3C02C" /><path d="M339.2 582.4v32h57.6v51.2h32v-51.2h57.6v-32h-57.6v-19.2h57.6v-32h-44.8l44.8-44.8-19.2-25.6-51.2 57.6-57.6-57.6-19.2 25.6 44.8 44.8h-44.8v32h57.6v19.2z" fill="#FFFFFF" /></svg>